<?xml version="1.0" encoding="utf-8"?>
<!-- Generator: Adobe Illustrator 26.0.2, SVG Export Plug-In . SVG Version: 6.00 Build 0)  -->
<svg version="1.1" id="Lager_1" xmlns="http://www.w3.org/2000/svg" xmlns:xlink="http://www.w3.org/1999/xlink" x="0px" y="0px"
	 viewBox="0 0 914.56 909.38" style="enable-background:new 0 0 914.56 909.38;" xml:space="preserve">
<style type="text/css">
	.st0{fill:#1C1452;}
	.st1{fill:#FD047C;}
	.st2{fill:#F6514B;}
	.st3{fill:#EF9D1A;}
</style>
<g>
	<circle class="st0" cx="457.28" cy="454.69" r="439.2"/>
	<g>
		<g>
			<path class="st1" d="M427.32,404.07 M441.46,237.62c102.34-12.82,172.44,23.03,176.14,90.45c1.99,36.21-16.97,69.38-55.39,96.19
				c47.59,19.18,72.47,48.75,74.7,89.33c3.12,56.81-43.01,109.72-114.27,128.7c-22.11,5.91-38.55,9.23-72.39,13.47l-149.38,18.71
				l-22.83-416.38L441.46,237.62z"/>
			<path class="st2" d="M456.33,379.21 M470.47,212.76c102.34-12.82,172.44,23.03,176.14,90.45c1.99,36.21-16.97,69.38-55.39,96.19
				c47.59,19.18,72.47,48.75,74.7,89.33c3.12,56.81-43.01,109.72-114.27,128.7c-22.11,5.91-38.55,9.23-72.39,13.47L329.89,649.6
				l-22.83-416.38L470.47,212.76z"/>
			<path class="st3" d="M485.33,354.35 M499.47,187.9c102.34-12.82,172.44,23.03,176.14,90.45c1.99,36.21-16.97,69.38-55.39,96.19
				c47.59,19.18,72.47,48.75,74.7,89.33c3.12,56.81-43.01,109.72-114.27,128.7c-22.11,5.91-38.55,9.23-72.39,13.47l-149.38,18.71
				l-22.83-416.38L499.47,187.9z"/>
		</g>
	</g>
</g>
</svg>
