<?xml version="1.0" encoding="utf-8"?>
<!-- Generator: Adobe Illustrator 26.0.2, SVG Export Plug-In . SVG Version: 6.00 Build 0)  -->
<svg version="1.1" id="Lager_1" xmlns="http://www.w3.org/2000/svg" xmlns:xlink="http://www.w3.org/1999/xlink" x="0px" y="0px"
	 viewBox="0 0 914.6 909.4" style="enable-background:new 0 0 914.6 909.4;" xml:space="preserve">
<style type="text/css">
	.st0{fill:#1C1452;}
	.st1{fill:#FD047C;}
	.st2{fill:#F6514B;}
	.st3{fill:#EF9D1A;}
</style>
<g>
	<circle class="st0" cx="457.3" cy="454.7" r="439.2"/>
	<g>
		<g>
			<path class="st1" d="M412.5,262.5c102.3-12.8,172.4,23,176.1,90.5c2,36.2-17,69.4-55.4,96.2c47.6,19.2,72.5,48.8,74.7,89.3
				c3.1,56.8-43,109.7-114.3,128.7c-22.1,5.9-38.5,9.2-72.4,13.5l-149.4,18.7L249,283L412.5,262.5z"/>
			<path class="st2" d="M441.5,237.6c102.3-12.8,172.4,23,176.1,90.5c2,36.2-17,69.4-55.4,96.2c47.6,19.2,72.5,48.8,74.7,89.3
				c3.1,56.8-43,109.7-114.3,128.7c-22.1,5.9-38.5,9.2-72.4,13.5l-149.4,18.7l-22.8-416.4L441.5,237.6z"/>
			<path class="st3" d="M470.5,212.8c102.3-12.8,172.4,23,176.1,90.4c2,36.2-17,69.4-55.4,96.2c47.6,19.2,72.5,48.8,74.7,89.3
				c3.1,56.8-43,109.7-114.3,128.7c-22.1,5.9-38.5,9.2-72.4,13.5l-149.4,18.7L307,233.2L470.5,212.8z"/>
		</g>
	</g>
</g>
</svg>
