<?xml version="1.0" encoding="utf-8"?>
<!-- Generator: Adobe Illustrator 26.0.2, SVG Export Plug-In . SVG Version: 6.00 Build 0)  -->
<svg version="1.1" id="Lager_1" xmlns="http://www.w3.org/2000/svg" xmlns:xlink="http://www.w3.org/1999/xlink" x="0px" y="0px"
	 viewBox="0 0 1808.34 687.24" style="enable-background:new 0 0 1808.34 687.24;" xml:space="preserve">
<style type="text/css">
	.st0{fill:#FD047C;}
	.st1{fill:#F6514B;}
	.st2{fill:#EF9D1A;}
</style>
<g>
	<g>
		<path class="st0" d="M165.05,255.87c94.71-10.61,159.06,23.64,161.69,86.41c1.41,33.71-16.5,64.33-52.31,88.78
			c43.74,18.46,66.39,46.29,67.97,84.07c2.21,52.89-41.03,101.54-107.09,118.28c-20.5,5.22-35.73,8.09-67.04,11.6L30.02,660.5
			l-16.2-387.69L165.05,255.87z"/>
		<path class="st0" d="M494.41,218.97l16.2,387.69l-107.95,12.1l-16.2-387.69L494.41,218.97z"/>
		<path class="st0" d="M592.99,195.07l237.79,173.08l-7.77-186l106.6-11.94l16.66,398.74L927.94,571L687.97,394.66l7.99,191.23
			l-103.88,11.64l-16.74-400.48L592.99,195.07z"/>
		<path class="st0" d="M1332.13,237.23c-34.75-15.38-70.47-21.3-103.06-17.65c-71.29,7.99-118.93,59.46-116.19,125.14
			c2.77,66.26,57.77,109.15,129.06,101.17c20.37-2.28,40.57-8.63,52.5-16.98l-2.62-46.42l-86.93,9.16l15.49-86.41l174.49-19.55
			l5.93,174.53c-33.29,35.85-94.88,63.77-156.66,70.69c-128.32,14.38-234.56-63.07-239.18-173.5
			c-4.61-110.44,94.82-212.09,221.11-226.24c41.42-4.64,91.44,0.85,123.33,13.04L1332.13,237.23z"/>
		<path class="st0" d="M1524.36,103.57l60.17,101.29l51.86-113.84l113.39-12.7l-111.36,240.81l6.7,160.42l-105.92,11.87
			l-6.75-161.59l-125.55-213.1L1524.36,103.57z"/>
	</g>
	<g>
		<path class="st1" d="M187.42,234.67c94.71-10.61,159.06,23.64,161.69,86.41c1.41,33.71-16.5,64.33-52.31,88.78
			c43.74,18.46,66.39,46.29,67.97,84.07c2.21,52.89-41.03,101.54-107.09,118.28c-20.5,5.22-35.73,8.09-67.04,11.6L52.4,639.31
			l-16.2-387.69L187.42,234.67z"/>
		<polygon class="st1" points="516.78,197.77 532.98,585.46 425.03,597.56 408.83,209.86 		"/>
		<polygon class="st1" points="615.37,173.87 853.16,346.95 845.39,160.95 951.99,149.01 968.65,547.74 950.32,549.8 710.34,373.46 
			718.33,564.69 614.45,576.33 597.72,175.85 		"/>
		<path class="st1" d="M1354.5,216.03c-34.75-15.38-70.47-21.3-103.06-17.65c-71.29,7.99-118.93,59.46-116.19,125.14
			c2.77,66.26,57.77,109.15,129.06,101.17c20.37-2.28,40.57-8.63,52.5-16.98l-2.62-46.42l-86.93,9.16l15.49-86.41l174.49-19.55
			l5.93,174.53c-33.29,35.85-94.88,63.77-156.66,70.69c-128.32,14.38-234.56-63.07-239.18-173.5
			c-4.61-110.44,94.82-212.09,221.11-226.24c41.42-4.64,91.44,0.85,123.33,13.04L1354.5,216.03z"/>
		<polygon class="st1" points="1546.74,82.37 1606.9,183.66 1658.76,69.82 1772.15,57.11 1660.79,297.92 1667.5,458.35 
			1561.58,470.21 1554.83,308.63 1429.28,95.53 		"/>
	</g>
	<g>
		<path class="st2" d="M209.79,213.47c94.71-10.61,159.06,23.64,161.69,86.41c1.41,33.71-16.5,64.33-52.31,88.78
			c43.74,18.46,66.39,46.29,67.97,84.07c2.21,52.89-41.03,101.54-107.09,118.28c-20.5,5.22-35.73,8.09-67.04,11.6L74.77,618.11
			l-16.2-387.69L209.79,213.47z"/>
		<path class="st2" d="M539.15,176.57l16.2,387.69l-107.95,12.1l-16.2-387.69L539.15,176.57z"/>
		<path class="st2" d="M637.74,152.68l237.79,173.08l-7.77-186l106.6-11.94l16.66,398.74l-18.33,2.05L732.71,352.27l7.99,191.23
			l-103.88,11.64l-16.74-400.48L637.74,152.68z"/>
		<path class="st2" d="M1376.88,194.83c-34.75-15.38-70.47-21.3-103.06-17.65c-71.29,7.99-118.93,59.46-116.19,125.14
			c2.77,66.26,57.77,109.15,129.06,101.17c20.37-2.28,40.57-8.63,52.5-16.98l-2.62-46.42l-86.93,9.16l15.49-86.41l174.49-19.55
			l5.93,174.53c-33.29,35.85-94.88,63.77-156.66,70.69c-128.32,14.38-234.56-63.07-239.18-173.5
			c-4.61-110.44,94.82-212.09,221.11-226.24c41.42-4.64,91.44,0.85,123.33,13.04L1376.88,194.83z"/>
		<path class="st2" d="M1569.11,61.17l60.17,101.29l51.86-113.85l113.39-12.7l-111.36,240.81l6.7,160.42l-105.92,11.87l-6.75-161.59
			l-125.55-213.1L1569.11,61.17z"/>
	</g>
</g>
</svg>
