<svg width="12" height="12" viewBox="0 0 12 12" fill="none" xmlns="http://www.w3.org/2000/svg">
<path d="M11.0604 1.09816C10.6704 0.708164 10.0404 0.708164 9.65038 1.09816L6.04659 4.70196L2.44418 1.09952C2.05418 0.709522 1.42417 0.709522 1.03417 1.09952C0.644175 1.48952 0.644175 2.11952 1.03417 2.50952L4.63659 6.11196L1.15799 9.58055C0.767994 9.97055 0.767994 10.6006 1.15799 10.9906C1.54799 11.3806 2.17799 11.3806 2.56799 10.9906L6.04659 7.52196L9.52038 10.9958C9.91038 11.3858 10.5404 11.3858 10.9304 10.9958C11.3204 10.6058 11.3204 9.97575 10.9304 9.58575L7.45659 6.11196L11.0604 2.49816C11.4404 2.11816 11.4404 1.47816 11.0604 1.09816Z" fill="#FFFFFF"/>
</svg>
