<svg width="20" height="22" viewBox="0 0 20 22" fill="none" xmlns="http://www.w3.org/2000/svg">
<path d="M7.14286 20.6791V16.7668C7.14286 16.2145 7.59042 15.7668 8.14271 15.7668C8.71927 15.7668 9.43877 15.7668 10 15.7668C10.5612 15.7668 11.2807 15.7668 11.8573 15.7668C12.4096 15.7668 12.8571 16.2145 12.8571 16.7668V20.6791C12.8571 21.4056 13.5 22 14.2857 22H18.5714C19.3571 22 20 21.4056 20 20.6791V11.4326V9.64453C20 8.79837 20 7.95252 19.1667 7.10637L10.9571 0.336836C10.4143 -0.112279 9.58571 -0.112279 9.04286 0.336836L0.833234 7.10637C9.96889e-05 7.95252 0 7.95252 0 9.64453V11.4326V20.6791C0 21.4056 0.642857 22 1.42857 22H5.71429C6.5 22 7.14286 21.4056 7.14286 20.6791Z" fill="#EEEEEE"/>
</svg>
