<svg width="12" height="12" viewBox="0 0 12 12" fill="none" xmlns="http://www.w3.org/2000/svg">
<path d="M8.3885 7.28171H7.78608L8.71639 8.17781C9.63145 7.11087 10.1042 5.65526 9.84496 4.1082C9.48656 1.98956 7.71745 0.297696 5.58232 0.0385818C2.35675 -0.35771 -0.35792 2.35537 0.0386044 5.57905C0.29787 7.71293 1.99073 9.481 4.11061 9.83919C5.65858 10.0983 7.11504 9.6258 8.18261 8.71128L7.24467 7.8228V8.42486L10.5 11.5C10.8126 11.8125 11.3236 11.8125 11.6362 11.5C11.9488 11.1875 11.9488 10.6769 11.6362 10.3645L8.3885 7.28171ZM4.95703 8.38358C3.05829 8.38358 1.52557 6.85176 1.52557 4.95413C1.52557 3.0565 3.05829 1.52468 4.95703 1.52468C6.85578 1.52468 8.3885 3.0565 8.3885 4.95413C8.3885 6.85176 6.85578 8.38358 4.95703 8.38358Z" fill="#EEEEEE"/>
</svg>
